<svg fill="#7e61e7" version="1.1" id="Layer_1" xmlns="http://www.w3.org/2000/svg" xmlns:xlink="http://www.w3.org/1999/xlink" viewBox="0 0 491.52 491.52" xml:space="preserve"><g id="SVGRepo_bgCarrier" stroke-width="0"></g><g id="SVGRepo_tracerCarrier" stroke-linecap="round" stroke-linejoin="round"></g><g id="SVGRepo_iconCarrier"> <g> <g> <path d="M491.52,285.15v-78.78l-57.55-9.6c-4.49-17.3-11.375-33.86-20.525-49.41l33.95-47.53l-55.715-55.7l-47.53,33.95 c-15.545-9.16-32.11-16.04-49.405-20.53L285.155,0h-78.79l-9.59,57.55c-17.295,4.49-33.86,11.37-49.405,20.53L99.84,44.13 l-55.715,55.7l33.95,47.53c-9.15,15.55-16.035,32.11-20.525,49.41L0,206.37v78.78l57.55,9.6c4.49,17.3,11.375,33.86,20.525,49.41 l-33.95,47.53l55.715,55.7l47.53-33.95c15.545,9.16,32.11,16.04,49.405,20.53l9.59,57.55h78.79l9.59-57.55 c17.295-4.49,33.86-11.37,49.405-20.53l47.53,33.95l55.715-55.7l-33.95-47.53c9.15-15.55,16.035-32.11,20.525-49.41L491.52,285.15 z M415.6,283.55c-4.35,19.65-12.11,38.34-23.065,55.54l-3.715,5.83l31.825,44.55l-31.175,31.18l-44.56-31.83l-5.825,3.71 c-17.205,10.96-35.89,18.72-55.54,23.07l-6.75,1.5l-8.99,53.94h-44.09l-8.99-53.94l-6.75-1.5 c-19.65-4.35-38.335-12.11-55.54-23.07l-5.825-3.71l-44.56,31.83l-31.175-31.18l31.825-44.55l-3.715-5.83 C88.03,321.89,80.27,303.2,75.92,283.55l-1.495-6.75l-53.945-8.99v-44.1l53.945-8.99l1.495-6.75 c4.35-19.65,12.11-38.34,23.065-55.54l3.715-5.83l-31.825-44.55l31.175-31.18l44.56,31.83l5.825-3.71 c17.205-10.96,35.89-18.72,55.54-23.07l6.75-1.5l8.99-53.94h44.09l8.99,53.94l6.75,1.5c19.65,4.35,38.335,12.11,55.54,23.07 l5.825,3.71l44.56-31.83l31.175,31.18L388.82,146.6l3.715,5.83c10.955,17.2,18.715,35.89,23.065,55.54l1.495,6.75l53.945,8.99 v44.1l-53.945,8.99L415.6,283.55z"></path> </g> </g> <g> <g> <polygon points="296.69,200.29 282.21,214.77 313.2,245.76 282.21,276.75 296.69,291.23 342.16,245.76 "></polygon> </g> </g> <g> <g> <polygon points="209.31,214.77 194.83,200.29 149.36,245.76 194.83,291.23 209.31,276.75 178.32,245.76 "></polygon> </g> </g> <g> <g> <rect x="180.795" y="241.739" transform="matrix(0.3417 -0.9398 0.9398 0.3417 -75.2008 396.5995)" width="129.409" height="20.48"></rect> </g> </g> <g> <g> <path d="M245.76,112.64c-73.405,0-133.12,59.72-133.12,133.12s59.715,133.12,133.12,133.12s133.12-59.72,133.12-133.12 S319.165,112.64,245.76,112.64z M245.76,358.4c-62.11,0-112.64-50.53-112.64-112.64s50.53-112.64,112.64-112.64 S358.4,183.65,358.4,245.76S307.87,358.4,245.76,358.4z"></path> </g> </g> </g></svg>