<svg fill="#7e61e7" viewBox="0 0 1024 1024" xmlns="http://www.w3.org/2000/svg"><g id="SVGRepo_bgCarrier" stroke-width="0"></g><g id="SVGRepo_tracerCarrier" stroke-linecap="round" stroke-linejoin="round"></g><g id="SVGRepo_iconCarrier"><path d="M187.698 120.105c41.846-15.492 89.309-5.554 121.432 26.561 44.941 44.941 44.941 117.826-.002 162.769-44.953 44.953-117.828 44.953-162.781 0-32.25-32.25-42.125-79.975-26.367-121.934 3.977-10.589-1.383-22.396-11.972-26.373s-22.396 1.383-26.373 11.972c-21.357 56.869-7.968 121.581 35.749 165.298 60.949 60.949 159.758 60.949 220.707 0 60.939-60.939 60.939-159.758 0-220.697-43.541-43.53-107.898-57.005-164.614-36.008-10.607 3.927-16.023 15.709-12.096 26.316s15.709 16.023 26.316 12.096z"></path><path d="M161.408 118.082l52.879 52.869c4.331 4.334 4.331 11.381-.001 15.713l-27.924 27.924c-4.341 4.341-11.373 4.341-15.714 0l-52.594-52.584c-7.999-7.997-20.966-7.996-28.963.003s-7.996 20.966.003 28.963l52.593 52.582c20.336 20.336 53.302 20.336 73.639-.001l27.924-27.924c20.326-20.326 20.326-53.297.006-73.634l-52.887-52.877c-7.999-7.997-20.966-7.996-28.963.003s-7.996 20.966.003 28.963zM836.42 904.635c-41.846 15.492-89.309 5.554-121.432-26.561-44.941-44.941-44.941-117.826.002-162.769 44.953-44.953 117.828-44.953 162.781 0 32.25 32.25 42.125 79.975 26.367 121.934-3.977 10.589 1.383 22.396 11.972 26.373s22.396-1.383 26.373-11.972c21.357-56.869 7.968-121.581-35.749-165.298-60.949-60.949-159.758-60.949-220.707 0-60.939 60.939-60.939 159.758 0 220.697 43.541 43.53 107.898 57.005 164.614 36.008 10.607-3.927 16.023-15.709 12.096-26.316s-15.709-16.023-26.316-12.096z"></path><path d="M862.712 906.659l-52.869-52.869c-4.34-4.34-4.34-11.377-.006-15.708l27.923-27.933c4.339-4.339 11.37-4.339 15.711.003l52.594 52.584c7.999 7.997 20.966 7.996 28.963-.003s7.996-20.966-.003-28.963l-52.593-52.582c-20.336-20.336-53.302-20.336-73.639.001l-27.917 27.927c-20.335 20.319-20.335 53.299.003 73.638l52.869 52.869c7.998 7.998 20.965 7.998 28.963 0s7.998-20.965 0-28.963zM674.469 738.186l-391.26-391.26c-7.998-7.998-20.965-7.998-28.963 0s-7.998 20.965 0 28.963l391.26 391.26c7.998 7.998 20.965 7.998 28.963 0s7.998-20.965 0-28.963zM343.768 279.258l400.374 400.374c7.998 7.998 20.965 7.998 28.963 0s7.998-20.965 0-28.963L372.731 250.295c-7.998-7.998-20.965-7.998-28.963 0s-7.998 20.965 0 28.963zm255.917 112.52l176.732-176.732c7.998-7.998 7.998-20.965 0-28.963s-20.965-7.998-28.963 0L570.722 362.815c-7.998 7.998-7.998 20.965 0 28.963s20.965 7.998 28.963 0zm214.393-149.914L631.53 422.641c-8.037 7.959-8.1 20.926-.141 28.963s20.926 8.1 28.963.141L842.9 270.968c8.037-7.959 8.1-20.926.141-28.963s-20.926-8.1-28.963-.141z"></path><path d="M945.721 131.005a20.48 20.48 0 014.873 21.176l-28.201 81.531a20.481 20.481 0 01-12.659 12.66l-81.541 28.211a20.48 20.48 0 01-21.179-4.874l-53.32-53.33a20.48 20.48 0 01-4.872-21.175l28.201-81.531a20.478 20.478 0 0112.658-12.659l81.531-28.211a20.478 20.478 0 0121.178 4.873l53.33 53.33zm-73.228-15.302l-60.012 20.765-20.758 60.014 35.194 35.201 60.021-20.766 20.758-60.012-35.202-35.202zm-421.165 544.57L208.763 902.838c-7.497 7.497-16.502 8.466-19.734 5.237l-74.541-74.541c-3.223-3.226-2.254-12.226 5.248-19.733l242.089-242.079c7.998-7.998 7.998-20.965.001-28.963s-20.965-7.998-28.963-.001L90.769 784.842c-22.28 22.295-26.003 56.877-5.249 77.648l74.553 74.553c20.778 20.76 55.375 17.036 77.654-5.243l242.565-242.565c7.998-7.998 7.998-20.965 0-28.963s-20.965-7.998-28.963 0z"></path></g></svg>